<svg width="294" height="45" viewBox="0 0 294 45" fill="none" xmlns="http://www.w3.org/2000/svg">
    <g id="Frame 1">
        <g clip-path="url(#clip0_10_2)">
            <rect width="294" height="45" rx="8" fill="white" />
            <g id="left-leaf">
                <path id="Ellipse 2"
                    d="M16.1644 43.3332C14.0337 46.8853 9.53246 49.2537 7.1644 47.8332C4.79634 46.4128 7.03369 43.8853 9.1644 40.3332C11.2951 36.7811 17.6644 34.3332 20.1644 34.3332C19.1644 37.3332 18.2951 39.7811 16.1644 43.3332Z"
                    fill="#09CD7A" />
                <path id="Ellipse 3"
                    d="M15.3556 37.5816C14.1618 42.9861 7.38291 47.4365 1.60644 46.1605C-4.17003 44.8844 -1.91975 40.8406 -0.725892 35.4361C0.467963 30.0316 16.4207 22.7253 21.276 22.0381C14.276 30.5381 16.5495 32.177 15.3556 37.5816Z"
                    fill="#09CD7A" />
            </g>
            <g id="right-leaf">
                <path id="Ellipse 2_2"
                    d="M282.214 2.36585C284.847 -1.22844 291.049 -3.3112 294.643 -1.54589C298.237 0.219416 295.323 2.70341 292.689 6.2977C290.056 9.89198 281.169 11.8698 277.561 11.6152C278.631 8.49813 279.581 5.96013 282.214 2.36585Z"
                    fill="#09CD7A" />
            </g>
            <g id="Group 1">
                <g id="Ellipse 1" filter="url(#filter0_f_10_2)">
                    <ellipse cx="28.5" rx="11.5" ry="11" fill="#09CD7A" />
                </g>
                <path id="JOIN US"
                    d="M47.8324 12.3636H48.2727V14.9631C48.2727 15.1951 48.2301 15.3922 48.1449 15.5543C48.0597 15.7165 47.9395 15.8396 47.7844 15.9237C47.6294 16.0077 47.4465 16.0497 47.2358 16.0497C47.0369 16.0497 46.86 16.0136 46.7049 15.9414C46.5498 15.868 46.4279 15.7638 46.3391 15.6289C46.2504 15.494 46.206 15.3336 46.206 15.1477H46.6392C46.6392 15.2507 46.6647 15.3407 46.7156 15.4176C46.7676 15.4934 46.8387 15.5526 46.9286 15.5952C47.0186 15.6378 47.121 15.6591 47.2358 15.6591C47.3625 15.6591 47.4702 15.6325 47.5589 15.5792C47.6477 15.5259 47.7152 15.4478 47.7614 15.3448C47.8087 15.2406 47.8324 15.1134 47.8324 14.9631V12.3636ZM52.2234 14.1818C52.2234 14.5653 52.1541 14.8968 52.0156 15.1761C51.8771 15.4555 51.6871 15.6709 51.4457 15.8224C51.2042 15.974 50.9284 16.0497 50.6183 16.0497C50.3081 16.0497 50.0323 15.974 49.7908 15.8224C49.5494 15.6709 49.3594 15.4555 49.2209 15.1761C49.0824 14.8968 49.0131 14.5653 49.0131 14.1818C49.0131 13.7983 49.0824 13.4669 49.2209 13.1875C49.3594 12.9081 49.5494 12.6927 49.7908 12.5412C50.0323 12.3897 50.3081 12.3139 50.6183 12.3139C50.9284 12.3139 51.2042 12.3897 51.4457 12.5412C51.6871 12.6927 51.8771 12.9081 52.0156 13.1875C52.1541 13.4669 52.2234 13.7983 52.2234 14.1818ZM51.7972 14.1818C51.7972 13.867 51.7446 13.6012 51.6392 13.3846C51.535 13.168 51.3936 13.004 51.2148 12.8928C51.0373 12.7815 50.8384 12.7259 50.6183 12.7259C50.3981 12.7259 50.1986 12.7815 50.0199 12.8928C49.8423 13.004 49.7009 13.168 49.5955 13.3846C49.4914 13.6012 49.4393 13.867 49.4393 14.1818C49.4393 14.4967 49.4914 14.7624 49.5955 14.979C49.7009 15.1957 49.8423 15.3596 50.0199 15.4709C50.1986 15.5821 50.3981 15.6378 50.6183 15.6378C50.8384 15.6378 51.0373 15.5821 51.2148 15.4709C51.3936 15.3596 51.535 15.1957 51.6392 14.979C51.7446 14.7624 51.7972 14.4967 51.7972 14.1818ZM53.4041 12.3636V16H52.9638V12.3636H53.4041ZM57.1705 12.3636V16H56.7444L54.7629 13.1449H54.7274V16H54.287V12.3636H54.7132L56.7018 15.2259H56.7373V12.3636H57.1705ZM61.8443 12.3636H62.2846V14.7713C62.2846 15.0199 62.226 15.2418 62.1088 15.4371C61.9928 15.6313 61.8289 15.7846 61.617 15.897C61.4051 16.0083 61.1565 16.0639 60.8713 16.0639C60.586 16.0639 60.3374 16.0083 60.1255 15.897C59.9136 15.7846 59.7491 15.6313 59.6319 15.4371C59.5159 15.2418 59.4579 15.0199 59.4579 14.7713V12.3636H59.8983V14.7358C59.8983 14.9134 59.9373 15.0714 60.0154 15.2099C60.0936 15.3472 60.2048 15.4555 60.3493 15.5348C60.4949 15.6129 60.6689 15.652 60.8713 15.652C61.0737 15.652 61.2477 15.6129 61.3933 15.5348C61.5389 15.4555 61.6502 15.3472 61.7271 15.2099C61.8052 15.0714 61.8443 14.9134 61.8443 14.7358V12.3636ZM65.1526 13.2727C65.1313 13.0928 65.0449 12.9531 64.8934 12.8537C64.7419 12.7543 64.556 12.7045 64.3358 12.7045C64.1749 12.7045 64.034 12.7306 63.9133 12.7827C63.7937 12.8348 63.7002 12.9064 63.6327 12.9975C63.5664 13.0887 63.5333 13.1922 63.5333 13.3082C63.5333 13.4053 63.5564 13.4888 63.6025 13.5586C63.6499 13.6272 63.7103 13.6847 63.7836 13.7308C63.857 13.7758 63.934 13.8131 64.0145 13.8427C64.095 13.8711 64.1689 13.8942 64.2364 13.9119L64.6057 14.0114C64.7004 14.0362 64.8058 14.0705 64.9218 14.1143C65.039 14.1581 65.1508 14.2179 65.2574 14.2937C65.3651 14.3683 65.4539 14.4641 65.5237 14.5813C65.5935 14.6985 65.6285 14.8423 65.6285 15.0128C65.6285 15.2093 65.577 15.3868 65.474 15.5455C65.3722 15.7041 65.223 15.8301 65.0265 15.9237C64.8312 16.0172 64.5939 16.0639 64.3145 16.0639C64.0541 16.0639 63.8286 16.0219 63.6381 15.9379C63.4487 15.8538 63.2995 15.7366 63.1906 15.5863C63.0829 15.436 63.0219 15.2614 63.0077 15.0625H63.4623C63.4741 15.1998 63.5203 15.3134 63.6008 15.4034C63.6824 15.4922 63.7854 15.5585 63.9097 15.6023C64.0352 15.6449 64.1701 15.6662 64.3145 15.6662C64.4826 15.6662 64.6336 15.639 64.7673 15.5845C64.9011 15.5289 65.007 15.4519 65.0851 15.3537C65.1633 15.2543 65.2023 15.1383 65.2023 15.0057C65.2023 14.8849 65.1686 14.7867 65.1011 14.7109C65.0336 14.6352 64.9449 14.5736 64.8348 14.5263C64.7247 14.4789 64.6057 14.4375 64.4779 14.402L64.0305 14.2741C63.7464 14.1925 63.5215 14.0759 63.3557 13.9244C63.19 13.7728 63.1072 13.5746 63.1072 13.3295C63.1072 13.1259 63.1622 12.9484 63.2723 12.7969C63.3836 12.6442 63.5327 12.5258 63.7197 12.4418C63.9079 12.3565 64.118 12.3139 64.3501 12.3139C64.5844 12.3139 64.7928 12.3559 64.9751 12.44C65.1573 12.5228 65.3018 12.6365 65.4083 12.7809C65.516 12.9253 65.5728 13.0893 65.5787 13.2727H65.1526Z"
                    fill="#AAAAAA" />
                <g id="as a career counsellor today!">
                    <path
                        d="M47.8977 25.1023C47.6212 25.1023 47.3703 25.0502 47.1449 24.946C46.9195 24.84 46.7405 24.6875 46.608 24.4886C46.4754 24.2879 46.4091 24.0455 46.4091 23.7614C46.4091 23.5114 46.4583 23.3087 46.5568 23.1534C46.6553 22.9962 46.7869 22.8731 46.9517 22.7841C47.1165 22.6951 47.2983 22.6288 47.4972 22.5852C47.6979 22.5398 47.8996 22.5038 48.1023 22.4773C48.3674 22.4432 48.5824 22.4176 48.7472 22.4006C48.9138 22.3816 49.035 22.3504 49.1108 22.3068C49.1884 22.2633 49.2273 22.1875 49.2273 22.0795V22.0568C49.2273 21.7765 49.1506 21.5587 48.9972 21.4034C48.8456 21.2481 48.6155 21.1705 48.3068 21.1705C47.9867 21.1705 47.7358 21.2405 47.554 21.3807C47.3722 21.5208 47.2443 21.6705 47.1705 21.8295L46.5341 21.6023C46.6477 21.3371 46.7992 21.1307 46.9886 20.983C47.1799 20.8333 47.3883 20.7292 47.6136 20.6705C47.8409 20.6098 48.0644 20.5795 48.2841 20.5795C48.4242 20.5795 48.5852 20.5966 48.767 20.6307C48.9508 20.6629 49.1278 20.7301 49.2983 20.8324C49.4706 20.9347 49.6136 21.089 49.7273 21.2955C49.8409 21.5019 49.8977 21.7784 49.8977 22.125V25H49.2273V24.4091H49.1932C49.1477 24.5038 49.072 24.6051 48.9659 24.7131C48.8598 24.821 48.7188 24.9129 48.5426 24.9886C48.3665 25.0644 48.1515 25.1023 47.8977 25.1023ZM48 24.5C48.2652 24.5 48.4886 24.4479 48.6705 24.3438C48.8542 24.2396 48.9924 24.1051 49.0852 23.9403C49.1799 23.7756 49.2273 23.6023 49.2273 23.4205V22.8068C49.1989 22.8409 49.1364 22.8722 49.0398 22.9006C48.9451 22.9271 48.8352 22.9508 48.7102 22.9716C48.5871 22.9905 48.4669 23.0076 48.3494 23.0227C48.2339 23.036 48.1402 23.0473 48.0682 23.0568C47.8939 23.0795 47.7311 23.1165 47.5795 23.1676C47.4299 23.2169 47.3087 23.2917 47.2159 23.392C47.125 23.4905 47.0795 23.625 47.0795 23.7955C47.0795 24.0284 47.1657 24.2045 47.3381 24.3239C47.5123 24.4413 47.733 24.5 48 24.5ZM54.2124 21.6136L53.6101 21.7841C53.5722 21.6837 53.5163 21.5862 53.4425 21.4915C53.3705 21.3949 53.272 21.3153 53.147 21.2528C53.022 21.1903 52.862 21.1591 52.6669 21.1591C52.3999 21.1591 52.1773 21.2206 51.9993 21.3438C51.8232 21.465 51.7351 21.6193 51.7351 21.8068C51.7351 21.9735 51.7957 22.1051 51.9169 22.2017C52.0381 22.2983 52.2275 22.3788 52.4851 22.4432L53.1328 22.6023C53.523 22.697 53.8137 22.8419 54.005 23.0369C54.1963 23.2301 54.2919 23.4792 54.2919 23.7841C54.2919 24.0341 54.2199 24.2576 54.076 24.4545C53.9339 24.6515 53.7351 24.8068 53.4794 24.9205C53.2237 25.0341 52.9264 25.0909 52.5874 25.0909C52.1423 25.0909 51.7739 24.9943 51.4822 24.8011C51.1906 24.608 51.0059 24.3258 50.9283 23.9545L51.5646 23.7955C51.6252 24.0303 51.7398 24.2064 51.9084 24.3239C52.0788 24.4413 52.3014 24.5 52.576 24.5C52.8885 24.5 53.1366 24.4337 53.3203 24.3011C53.5059 24.1667 53.5987 24.0057 53.5987 23.8182C53.5987 23.6667 53.5457 23.5398 53.4396 23.4375C53.3336 23.3333 53.1707 23.2557 52.951 23.2045L52.2237 23.0341C51.8241 22.9394 51.5305 22.7926 51.343 22.5938C51.1574 22.393 51.0646 22.142 51.0646 21.8409C51.0646 21.5947 51.1338 21.3769 51.272 21.1875C51.4122 20.9981 51.6025 20.8494 51.843 20.7415C52.0855 20.6335 52.3601 20.5795 52.6669 20.5795C53.0987 20.5795 53.4377 20.6742 53.6839 20.8636C53.9321 21.053 54.1082 21.303 54.2124 21.6136ZM58.8352 25.1023C58.5587 25.1023 58.3078 25.0502 58.0824 24.946C57.857 24.84 57.678 24.6875 57.5455 24.4886C57.4129 24.2879 57.3466 24.0455 57.3466 23.7614C57.3466 23.5114 57.3958 23.3087 57.4943 23.1534C57.5928 22.9962 57.7244 22.8731 57.8892 22.7841C58.054 22.6951 58.2358 22.6288 58.4347 22.5852C58.6354 22.5398 58.8371 22.5038 59.0398 22.4773C59.3049 22.4432 59.5199 22.4176 59.6847 22.4006C59.8513 22.3816 59.9725 22.3504 60.0483 22.3068C60.1259 22.2633 60.1648 22.1875 60.1648 22.0795V22.0568C60.1648 21.7765 60.0881 21.5587 59.9347 21.4034C59.7831 21.2481 59.553 21.1705 59.2443 21.1705C58.9242 21.1705 58.6733 21.2405 58.4915 21.3807C58.3097 21.5208 58.1818 21.6705 58.108 21.8295L57.4716 21.6023C57.5852 21.3371 57.7367 21.1307 57.9261 20.983C58.1174 20.8333 58.3258 20.7292 58.5511 20.6705C58.7784 20.6098 59.0019 20.5795 59.2216 20.5795C59.3617 20.5795 59.5227 20.5966 59.7045 20.6307C59.8883 20.6629 60.0653 20.7301 60.2358 20.8324C60.4081 20.9347 60.5511 21.089 60.6648 21.2955C60.7784 21.5019 60.8352 21.7784 60.8352 22.125V25H60.1648V24.4091H60.1307C60.0852 24.5038 60.0095 24.6051 59.9034 24.7131C59.7973 24.821 59.6563 24.9129 59.4801 24.9886C59.304 25.0644 59.089 25.1023 58.8352 25.1023ZM58.9375 24.5C59.2027 24.5 59.4261 24.4479 59.608 24.3438C59.7917 24.2396 59.9299 24.1051 60.0227 23.9403C60.1174 23.7756 60.1648 23.6023 60.1648 23.4205V22.8068C60.1364 22.8409 60.0739 22.8722 59.9773 22.9006C59.8826 22.9271 59.7727 22.9508 59.6477 22.9716C59.5246 22.9905 59.4044 23.0076 59.2869 23.0227C59.1714 23.036 59.0777 23.0473 59.0057 23.0568C58.8314 23.0795 58.6686 23.1165 58.517 23.1676C58.3674 23.2169 58.2462 23.2917 58.1534 23.392C58.0625 23.4905 58.017 23.625 58.017 23.7955C58.017 24.0284 58.1032 24.2045 58.2756 24.3239C58.4498 24.4413 58.6705 24.5 58.9375 24.5ZM66.0817 25.0909C65.6726 25.0909 65.3203 24.9943 65.0249 24.8011C64.7294 24.608 64.5021 24.3419 64.343 24.0028C64.1839 23.6638 64.1044 23.2765 64.1044 22.8409C64.1044 22.3977 64.1858 22.0066 64.3487 21.6676C64.5135 21.3267 64.7427 21.0606 65.0362 20.8693C65.3317 20.6761 65.6764 20.5795 66.0703 20.5795C66.3771 20.5795 66.6536 20.6364 66.8999 20.75C67.1461 20.8636 67.3478 21.0227 67.505 21.2273C67.6622 21.4318 67.7597 21.6705 67.7976 21.9432H67.1271C67.076 21.7443 66.9624 21.5682 66.7862 21.4148C66.612 21.2595 66.3771 21.1818 66.0817 21.1818C65.8203 21.1818 65.5911 21.25 65.3942 21.3864C65.1991 21.5208 65.0466 21.7112 64.9368 21.9574C64.8288 22.2017 64.7749 22.4886 64.7749 22.8182C64.7749 23.1553 64.8279 23.4489 64.9339 23.6989C65.0419 23.9489 65.1934 24.143 65.3885 24.2812C65.5855 24.4195 65.8165 24.4886 66.0817 24.4886C66.2559 24.4886 66.4141 24.4583 66.5561 24.3977C66.6982 24.3371 66.8184 24.25 66.9169 24.1364C67.0154 24.0227 67.0855 23.8864 67.1271 23.7273H67.7976C67.7597 23.9848 67.666 24.2169 67.5163 24.4233C67.3686 24.6278 67.1726 24.7907 66.9283 24.9119C66.6858 25.0312 66.4036 25.0909 66.0817 25.0909ZM70.0618 25.1023C69.7853 25.1023 69.5343 25.0502 69.3089 24.946C69.0836 24.84 68.9046 24.6875 68.772 24.4886C68.6394 24.2879 68.5732 24.0455 68.5732 23.7614C68.5732 23.5114 68.6224 23.3087 68.7209 23.1534C68.8194 22.9962 68.951 22.8731 69.1158 22.7841C69.2805 22.6951 69.4624 22.6288 69.6612 22.5852C69.862 22.5398 70.0637 22.5038 70.2663 22.4773C70.5315 22.4432 70.7464 22.4176 70.9112 22.4006C71.0779 22.3816 71.1991 22.3504 71.2749 22.3068C71.3525 22.2633 71.3913 22.1875 71.3913 22.0795V22.0568C71.3913 21.7765 71.3146 21.5587 71.1612 21.4034C71.0097 21.2481 70.7796 21.1705 70.4709 21.1705C70.1508 21.1705 69.8999 21.2405 69.718 21.3807C69.5362 21.5208 69.4084 21.6705 69.3345 21.8295L68.6982 21.6023C68.8118 21.3371 68.9633 21.1307 69.1527 20.983C69.344 20.8333 69.5523 20.7292 69.7777 20.6705C70.005 20.6098 70.2285 20.5795 70.4482 20.5795C70.5883 20.5795 70.7493 20.5966 70.9311 20.6307C71.1148 20.6629 71.2919 20.7301 71.4624 20.8324C71.6347 20.9347 71.7777 21.089 71.8913 21.2955C72.005 21.5019 72.0618 21.7784 72.0618 22.125V25H71.3913V24.4091H71.3572C71.3118 24.5038 71.236 24.6051 71.13 24.7131C71.0239 24.821 70.8828 24.9129 70.7067 24.9886C70.5305 25.0644 70.3156 25.1023 70.0618 25.1023ZM70.1641 24.5C70.4292 24.5 70.6527 24.4479 70.8345 24.3438C71.0182 24.2396 71.1565 24.1051 71.2493 23.9403C71.344 23.7756 71.3913 23.6023 71.3913 23.4205V22.8068C71.3629 22.8409 71.3004 22.8722 71.2038 22.9006C71.1091 22.9271 70.9993 22.9508 70.8743 22.9716C70.7512 22.9905 70.6309 23.0076 70.5135 23.0227C70.398 23.036 70.3042 23.0473 70.2322 23.0568C70.058 23.0795 69.8951 23.1165 69.7436 23.1676C69.594 23.2169 69.4728 23.2917 69.38 23.392C69.2891 23.4905 69.2436 23.625 69.2436 23.7955C69.2436 24.0284 69.3298 24.2045 69.5021 24.3239C69.6764 24.4413 69.897 24.5 70.1641 24.5ZM73.2855 25V20.6364H73.9332V21.2955H73.9787C74.0582 21.0795 74.2022 20.9044 74.4105 20.7699C74.6188 20.6354 74.8537 20.5682 75.1151 20.5682C75.1643 20.5682 75.2259 20.5691 75.2997 20.571C75.3736 20.5729 75.4295 20.5758 75.4673 20.5795V21.2614C75.4446 21.2557 75.3925 21.2472 75.3111 21.2358C75.2315 21.2225 75.1473 21.2159 75.0582 21.2159C74.8461 21.2159 74.6567 21.2604 74.4901 21.3494C74.3253 21.4366 74.1946 21.5578 74.098 21.7131C74.0033 21.8665 73.956 22.0417 73.956 22.2386V25H73.2855ZM77.9588 25.0909C77.5384 25.0909 77.1757 24.9981 76.8707 24.8125C76.5677 24.625 76.3338 24.3636 76.169 24.0284C76.0062 23.6913 75.9247 23.2992 75.9247 22.8523C75.9247 22.4053 76.0062 22.0114 76.169 21.6705C76.3338 21.3277 76.563 21.0606 76.8565 20.8693C77.152 20.6761 77.4967 20.5795 77.8906 20.5795C78.1179 20.5795 78.3423 20.6174 78.5639 20.6932C78.7855 20.7689 78.9872 20.892 79.169 21.0625C79.3509 21.2311 79.4957 21.4545 79.6037 21.733C79.7116 22.0114 79.7656 22.3542 79.7656 22.7614V23.0455H76.402V22.4659H79.0838C79.0838 22.2197 79.0346 22 78.9361 21.8068C78.8395 21.6136 78.7012 21.4612 78.5213 21.3494C78.3433 21.2377 78.133 21.1818 77.8906 21.1818C77.6236 21.1818 77.3925 21.2481 77.1974 21.3807C77.0043 21.5114 76.8556 21.6818 76.7514 21.892C76.6473 22.1023 76.5952 22.3277 76.5952 22.5682V22.9545C76.5952 23.2841 76.652 23.5634 76.7656 23.7926C76.8812 24.0199 77.0412 24.1932 77.2457 24.3125C77.4503 24.4299 77.688 24.4886 77.9588 24.4886C78.1349 24.4886 78.294 24.464 78.4361 24.4148C78.58 24.3636 78.7041 24.2879 78.8082 24.1875C78.9124 24.0852 78.9929 23.9583 79.0497 23.8068L79.6974 23.9886C79.6293 24.2083 79.5147 24.4015 79.3537 24.5682C79.1927 24.733 78.9938 24.8617 78.7571 24.9545C78.5204 25.0455 78.2543 25.0909 77.9588 25.0909ZM82.6151 25.0909C82.1946 25.0909 81.8319 24.9981 81.527 24.8125C81.224 24.625 80.9901 24.3636 80.8253 24.0284C80.6624 23.6913 80.581 23.2992 80.581 22.8523C80.581 22.4053 80.6624 22.0114 80.8253 21.6705C80.9901 21.3277 81.2192 21.0606 81.5128 20.8693C81.8082 20.6761 82.1529 20.5795 82.5469 20.5795C82.7741 20.5795 82.9986 20.6174 83.2202 20.6932C83.4418 20.7689 83.6435 20.892 83.8253 21.0625C84.0071 21.2311 84.152 21.4545 84.2599 21.733C84.3679 22.0114 84.4219 22.3542 84.4219 22.7614V23.0455H81.0582V22.4659H83.7401C83.7401 22.2197 83.6908 22 83.5923 21.8068C83.4957 21.6136 83.3575 21.4612 83.1776 21.3494C82.9995 21.2377 82.7893 21.1818 82.5469 21.1818C82.2798 21.1818 82.0488 21.2481 81.8537 21.3807C81.6605 21.5114 81.5118 21.6818 81.4077 21.892C81.3035 22.1023 81.2514 22.3277 81.2514 22.5682V22.9545C81.2514 23.2841 81.3082 23.5634 81.4219 23.7926C81.5374 24.0199 81.6974 24.1932 81.902 24.3125C82.1065 24.4299 82.3442 24.4886 82.6151 24.4886C82.7912 24.4886 82.9503 24.464 83.0923 24.4148C83.2363 24.3636 83.3603 24.2879 83.4645 24.1875C83.5687 24.0852 83.6491 23.9583 83.706 23.8068L84.3537 23.9886C84.2855 24.2083 84.1709 24.4015 84.0099 24.5682C83.849 24.733 83.6501 24.8617 83.4134 24.9545C83.1766 25.0455 82.9105 25.0909 82.6151 25.0909ZM85.4418 25V20.6364H86.0895V21.2955H86.1349C86.2145 21.0795 86.3584 20.9044 86.5668 20.7699C86.7751 20.6354 87.0099 20.5682 87.2713 20.5682C87.3205 20.5682 87.3821 20.5691 87.456 20.571C87.5298 20.5729 87.5857 20.5758 87.6236 20.5795V21.2614C87.6009 21.2557 87.5488 21.2472 87.4673 21.2358C87.3878 21.2225 87.3035 21.2159 87.2145 21.2159C87.0024 21.2159 86.813 21.2604 86.6463 21.3494C86.4815 21.4366 86.3509 21.5578 86.2543 21.7131C86.1596 21.8665 86.1122 22.0417 86.1122 22.2386V25H85.4418ZM133.769 20.6364V21.2045H131.508V20.6364H133.769ZM132.167 19.5909H132.837V23.75C132.837 23.9394 132.865 24.0814 132.92 24.1761C132.977 24.2689 133.049 24.3314 133.136 24.3636C133.225 24.3939 133.318 24.4091 133.417 24.4091C133.491 24.4091 133.551 24.4053 133.599 24.3977C133.646 24.3883 133.684 24.3807 133.712 24.375L133.849 24.9773C133.803 24.9943 133.74 25.0114 133.658 25.0284C133.577 25.0473 133.474 25.0568 133.349 25.0568C133.159 25.0568 132.974 25.0161 132.792 24.9347C132.612 24.8532 132.462 24.7292 132.343 24.5625C132.226 24.3958 132.167 24.1856 132.167 23.9318V19.5909ZM136.504 25.0909C136.11 25.0909 135.764 24.9972 135.467 24.8097C135.171 24.6222 134.94 24.3598 134.773 24.0227C134.609 23.6856 134.526 23.2917 134.526 22.8409C134.526 22.3864 134.609 21.9896 134.773 21.6506C134.94 21.3116 135.171 21.0483 135.467 20.8608C135.764 20.6733 136.11 20.5795 136.504 20.5795C136.897 20.5795 137.242 20.6733 137.538 20.8608C137.835 21.0483 138.066 21.3116 138.231 21.6506C138.397 21.9896 138.481 22.3864 138.481 22.8409C138.481 23.2917 138.397 23.6856 138.231 24.0227C138.066 24.3598 137.835 24.6222 137.538 24.8097C137.242 24.9972 136.897 25.0909 136.504 25.0909ZM136.504 24.4886C136.803 24.4886 137.049 24.4119 137.242 24.2585C137.435 24.1051 137.578 23.9034 137.671 23.6534C137.764 23.4034 137.81 23.1326 137.81 22.8409C137.81 22.5492 137.764 22.2775 137.671 22.0256C137.578 21.7737 137.435 21.5701 137.242 21.4148C137.049 21.2595 136.803 21.1818 136.504 21.1818C136.204 21.1818 135.958 21.2595 135.765 21.4148C135.572 21.5701 135.429 21.7737 135.336 22.0256C135.243 22.2775 135.197 22.5492 135.197 22.8409C135.197 23.1326 135.243 23.4034 135.336 23.6534C135.429 23.9034 135.572 24.1051 135.765 24.2585C135.958 24.4119 136.204 24.4886 136.504 24.4886ZM141.152 25.0909C140.788 25.0909 140.467 24.9991 140.189 24.8153C139.911 24.6297 139.693 24.3684 139.536 24.0312C139.378 23.6922 139.3 23.2917 139.3 22.8295C139.3 22.3712 139.378 21.9735 139.536 21.6364C139.693 21.2992 139.911 21.0388 140.192 20.8551C140.472 20.6714 140.796 20.5795 141.163 20.5795C141.447 20.5795 141.672 20.6269 141.837 20.7216C142.003 20.8144 142.13 20.9205 142.217 21.0398C142.306 21.1572 142.375 21.2538 142.425 21.3295H142.482V19.1818H143.152V25H142.504V24.3295H142.425C142.375 24.4091 142.305 24.5095 142.214 24.6307C142.124 24.75 141.994 24.857 141.825 24.9517C141.657 25.0445 141.432 25.0909 141.152 25.0909ZM141.243 24.4886C141.512 24.4886 141.739 24.4186 141.925 24.2784C142.11 24.1364 142.251 23.9403 142.348 23.6903C142.445 23.4384 142.493 23.1477 142.493 22.8182C142.493 22.4924 142.446 22.2074 142.351 21.9631C142.256 21.7169 142.116 21.5256 141.93 21.3892C141.745 21.2509 141.516 21.1818 141.243 21.1818C140.959 21.1818 140.722 21.2547 140.533 21.4006C140.345 21.5445 140.204 21.7405 140.109 21.9886C140.017 22.2348 139.97 22.5114 139.97 22.8182C139.97 23.1288 140.018 23.411 140.112 23.6648C140.209 23.9167 140.351 24.1174 140.538 24.267C140.728 24.4148 140.963 24.4886 141.243 24.4886ZM145.757 25.1023C145.481 25.1023 145.23 25.0502 145.004 24.946C144.779 24.84 144.6 24.6875 144.467 24.4886C144.335 24.2879 144.268 24.0455 144.268 23.7614C144.268 23.5114 144.318 23.3087 144.416 23.1534C144.515 22.9962 144.646 22.8731 144.811 22.7841C144.976 22.6951 145.158 22.6288 145.357 22.5852C145.557 22.5398 145.759 22.5038 145.962 22.4773C146.227 22.4432 146.442 22.4176 146.607 22.4006C146.773 22.3816 146.894 22.3504 146.97 22.3068C147.048 22.2633 147.087 22.1875 147.087 22.0795V22.0568C147.087 21.7765 147.01 21.5587 146.857 21.4034C146.705 21.2481 146.475 21.1705 146.166 21.1705C145.846 21.1705 145.595 21.2405 145.413 21.3807C145.232 21.5208 145.104 21.6705 145.03 21.8295L144.393 21.6023C144.507 21.3371 144.659 21.1307 144.848 20.983C145.039 20.8333 145.248 20.7292 145.473 20.6705C145.7 20.6098 145.924 20.5795 146.143 20.5795C146.284 20.5795 146.445 20.5966 146.626 20.6307C146.81 20.6629 146.987 20.7301 147.158 20.8324C147.33 20.9347 147.473 21.089 147.587 21.2955C147.7 21.5019 147.757 21.7784 147.757 22.125V25H147.087V24.4091H147.053C147.007 24.5038 146.931 24.6051 146.825 24.7131C146.719 24.821 146.578 24.9129 146.402 24.9886C146.226 25.0644 146.011 25.1023 145.757 25.1023ZM145.859 24.5C146.125 24.5 146.348 24.4479 146.53 24.3438C146.714 24.2396 146.852 24.1051 146.945 23.9403C147.039 23.7756 147.087 23.6023 147.087 23.4205V22.8068C147.058 22.8409 146.996 22.8722 146.899 22.9006C146.804 22.9271 146.695 22.9508 146.57 22.9716C146.446 22.9905 146.326 23.0076 146.209 23.0227C146.093 23.036 146 23.0473 145.928 23.0568C145.753 23.0795 145.59 23.1165 145.439 23.1676C145.289 23.2169 145.168 23.2917 145.075 23.392C144.984 23.4905 144.939 23.625 144.939 23.7955C144.939 24.0284 145.025 24.2045 145.197 24.3239C145.372 24.4413 145.592 24.5 145.859 24.5ZM149.256 26.6364C149.143 26.6364 149.041 26.6269 148.952 26.608C148.863 26.5909 148.802 26.5739 148.768 26.5568L148.938 25.9659C149.101 26.0076 149.245 26.0227 149.37 26.0114C149.495 26 149.606 25.9441 149.702 25.8438C149.801 25.7453 149.891 25.5852 149.972 25.3636L150.097 25.0227L148.484 20.6364H149.211L150.415 24.1136H150.461L151.665 20.6364H152.393L150.54 25.6364C150.457 25.8617 150.354 26.0483 150.231 26.196C150.108 26.3456 149.965 26.4564 149.802 26.5284C149.641 26.6004 149.459 26.6364 149.256 26.6364ZM154.164 19.1818L154.107 23.3636H153.448L153.391 19.1818H154.164ZM153.778 25.0455C153.638 25.0455 153.517 24.9953 153.417 24.8949C153.317 24.7945 153.266 24.6742 153.266 24.5341C153.266 24.3939 153.317 24.2737 153.417 24.1733C153.517 24.0729 153.638 24.0227 153.778 24.0227C153.918 24.0227 154.038 24.0729 154.138 24.1733C154.239 24.2737 154.289 24.3939 154.289 24.5341C154.289 24.6269 154.265 24.7121 154.218 24.7898C154.173 24.8674 154.111 24.9299 154.033 24.9773C153.958 25.0227 153.872 25.0455 153.778 25.0455Z"
                        fill="#767272" />
                    <path
                        d="M92.4411 25.0909C92.032 25.0909 91.6797 24.9943 91.3842 24.8011C91.0888 24.608 90.8615 24.3419 90.7024 24.0028C90.5433 23.6638 90.4638 23.2765 90.4638 22.8409C90.4638 22.3977 90.5452 22.0066 90.7081 21.6676C90.8729 21.3267 91.102 21.0606 91.3956 20.8693C91.6911 20.6761 92.0357 20.5795 92.4297 20.5795C92.7365 20.5795 93.013 20.6364 93.2592 20.75C93.5054 20.8636 93.7071 21.0227 93.8643 21.2273C94.0215 21.4318 94.1191 21.6705 94.157 21.9432H93.4865C93.4354 21.7443 93.3217 21.5682 93.1456 21.4148C92.9714 21.2595 92.7365 21.1818 92.4411 21.1818C92.1797 21.1818 91.9505 21.25 91.7536 21.3864C91.5585 21.5208 91.406 21.7112 91.2962 21.9574C91.1882 22.2017 91.1342 22.4886 91.1342 22.8182C91.1342 23.1553 91.1873 23.4489 91.2933 23.6989C91.4013 23.9489 91.5528 24.143 91.7479 24.2812C91.9448 24.4195 92.1759 24.4886 92.4411 24.4886C92.6153 24.4886 92.7734 24.4583 92.9155 24.3977C93.0575 24.3371 93.1778 24.25 93.2763 24.1364C93.3748 24.0227 93.4448 23.8864 93.4865 23.7273H94.157C94.1191 23.9848 94.0253 24.2169 93.8757 24.4233C93.728 24.6278 93.532 24.7907 93.2876 24.9119C93.0452 25.0312 92.763 25.0909 92.4411 25.0909ZM96.9098 25.0909C96.5159 25.0909 96.1702 24.9972 95.8729 24.8097C95.5774 24.6222 95.3464 24.3598 95.1797 24.0227C95.0149 23.6856 94.9325 23.2917 94.9325 22.8409C94.9325 22.3864 95.0149 21.9896 95.1797 21.6506C95.3464 21.3116 95.5774 21.0483 95.8729 20.8608C96.1702 20.6733 96.5159 20.5795 96.9098 20.5795C97.3037 20.5795 97.6484 20.6733 97.9439 20.8608C98.2412 21.0483 98.4723 21.3116 98.6371 21.6506C98.8037 21.9896 98.8871 22.3864 98.8871 22.8409C98.8871 23.2917 98.8037 23.6856 98.6371 24.0227C98.4723 24.3598 98.2412 24.6222 97.9439 24.8097C97.6484 24.9972 97.3037 25.0909 96.9098 25.0909ZM96.9098 24.4886C97.209 24.4886 97.4553 24.4119 97.6484 24.2585C97.8416 24.1051 97.9846 23.9034 98.0774 23.6534C98.1702 23.4034 98.2166 23.1326 98.2166 22.8409C98.2166 22.5492 98.1702 22.2775 98.0774 22.0256C97.9846 21.7737 97.8416 21.5701 97.6484 21.4148C97.4553 21.2595 97.209 21.1818 96.9098 21.1818C96.6106 21.1818 96.3643 21.2595 96.1712 21.4148C95.978 21.5701 95.835 21.7737 95.7422 22.0256C95.6494 22.2775 95.603 22.5492 95.603 22.8409C95.603 23.1326 95.6494 23.4034 95.7422 23.6534C95.835 23.9034 95.978 24.1051 96.1712 24.2585C96.3643 24.4119 96.6106 24.4886 96.9098 24.4886ZM102.661 23.2159V20.6364H103.331V25H102.661V24.2614H102.615C102.513 24.483 102.354 24.6714 102.138 24.8267C101.922 24.9801 101.649 25.0568 101.32 25.0568C101.047 25.0568 100.804 24.9972 100.592 24.8778C100.38 24.7566 100.214 24.5748 100.092 24.3324C99.9711 24.0881 99.9105 23.7803 99.9105 23.4091V20.6364H100.581V23.3636C100.581 23.6818 100.67 23.9356 100.848 24.125C101.028 24.3144 101.257 24.4091 101.536 24.4091C101.702 24.4091 101.872 24.3665 102.044 24.2812C102.218 24.196 102.364 24.0653 102.482 23.8892C102.601 23.7131 102.661 23.4886 102.661 23.2159ZM105.229 22.375V25H104.559V20.6364H105.207V21.3182H105.263C105.366 21.0966 105.521 20.9186 105.729 20.7841C105.938 20.6477 106.207 20.5795 106.536 20.5795C106.832 20.5795 107.09 20.6402 107.312 20.7614C107.533 20.8807 107.706 21.0625 107.829 21.3068C107.952 21.5492 108.013 21.8561 108.013 22.2273V25H107.343V22.2727C107.343 21.9299 107.254 21.6629 107.076 21.4716C106.898 21.2784 106.654 21.1818 106.343 21.1818C106.129 21.1818 105.938 21.2282 105.769 21.321C105.603 21.4138 105.471 21.5492 105.374 21.7273C105.278 21.9053 105.229 22.1212 105.229 22.375ZM112.33 21.6136L111.727 21.7841C111.689 21.6837 111.634 21.5862 111.56 21.4915C111.488 21.3949 111.389 21.3153 111.264 21.2528C111.139 21.1903 110.979 21.1591 110.784 21.1591C110.517 21.1591 110.295 21.2206 110.116 21.3438C109.94 21.465 109.852 21.6193 109.852 21.8068C109.852 21.9735 109.913 22.1051 110.034 22.2017C110.155 22.2983 110.345 22.3788 110.602 22.4432L111.25 22.6023C111.64 22.697 111.931 22.8419 112.122 23.0369C112.313 23.2301 112.409 23.4792 112.409 23.7841C112.409 24.0341 112.337 24.2576 112.193 24.4545C112.051 24.6515 111.852 24.8068 111.597 24.9205C111.341 25.0341 111.044 25.0909 110.705 25.0909C110.259 25.0909 109.891 24.9943 109.599 24.8011C109.308 24.608 109.123 24.3258 109.045 23.9545L109.682 23.7955C109.742 24.0303 109.857 24.2064 110.026 24.3239C110.196 24.4413 110.419 24.5 110.693 24.5C111.006 24.5 111.254 24.4337 111.438 24.3011C111.623 24.1667 111.716 24.0057 111.716 23.8182C111.716 23.6667 111.663 23.5398 111.557 23.4375C111.451 23.3333 111.288 23.2557 111.068 23.2045L110.341 23.0341C109.941 22.9394 109.648 22.7926 109.46 22.5938C109.275 22.393 109.182 22.142 109.182 21.8409C109.182 21.5947 109.251 21.3769 109.389 21.1875C109.529 20.9981 109.72 20.8494 109.96 20.7415C110.203 20.6335 110.477 20.5795 110.784 20.5795C111.216 20.5795 111.555 20.6742 111.801 20.8636C112.049 21.053 112.225 21.303 112.33 21.6136ZM115.248 25.0909C114.827 25.0909 114.465 24.9981 114.16 24.8125C113.857 24.625 113.623 24.3636 113.458 24.0284C113.295 23.6913 113.214 23.2992 113.214 22.8523C113.214 22.4053 113.295 22.0114 113.458 21.6705C113.623 21.3277 113.852 21.0606 114.146 20.8693C114.441 20.6761 114.786 20.5795 115.18 20.5795C115.407 20.5795 115.631 20.6174 115.853 20.6932C116.075 20.7689 116.276 20.892 116.458 21.0625C116.64 21.2311 116.785 21.4545 116.893 21.733C117.001 22.0114 117.055 22.3542 117.055 22.7614V23.0455H113.691V22.4659H116.373C116.373 22.2197 116.324 22 116.225 21.8068C116.129 21.6136 115.99 21.4612 115.81 21.3494C115.632 21.2377 115.422 21.1818 115.18 21.1818C114.913 21.1818 114.682 21.2481 114.487 21.3807C114.293 21.5114 114.145 21.6818 114.04 21.892C113.936 22.1023 113.884 22.3277 113.884 22.5682V22.9545C113.884 23.2841 113.941 23.5634 114.055 23.7926C114.17 24.0199 114.33 24.1932 114.535 24.3125C114.739 24.4299 114.977 24.4886 115.248 24.4886C115.424 24.4886 115.583 24.464 115.725 24.4148C115.869 24.3636 115.993 24.2879 116.097 24.1875C116.201 24.0852 116.282 23.9583 116.339 23.8068L116.987 23.9886C116.918 24.2083 116.804 24.4015 116.643 24.5682C116.482 24.733 116.283 24.8617 116.046 24.9545C115.809 25.0455 115.543 25.0909 115.248 25.0909ZM118.745 19.1818V25H118.075V19.1818H118.745ZM120.643 19.1818V25H119.973V19.1818H120.643ZM123.644 25.0909C123.25 25.0909 122.905 24.9972 122.607 24.8097C122.312 24.6222 122.081 24.3598 121.914 24.0227C121.749 23.6856 121.667 23.2917 121.667 22.8409C121.667 22.3864 121.749 21.9896 121.914 21.6506C122.081 21.3116 122.312 21.0483 122.607 20.8608C122.905 20.6733 123.25 20.5795 123.644 20.5795C124.038 20.5795 124.383 20.6733 124.678 20.8608C124.976 21.0483 125.207 21.3116 125.371 21.6506C125.538 21.9896 125.621 22.3864 125.621 22.8409C125.621 23.2917 125.538 23.6856 125.371 24.0227C125.207 24.3598 124.976 24.6222 124.678 24.8097C124.383 24.9972 124.038 25.0909 123.644 25.0909ZM123.644 24.4886C123.943 24.4886 124.19 24.4119 124.383 24.2585C124.576 24.1051 124.719 23.9034 124.812 23.6534C124.905 23.4034 124.951 23.1326 124.951 22.8409C124.951 22.5492 124.905 22.2775 124.812 22.0256C124.719 21.7737 124.576 21.5701 124.383 21.4148C124.19 21.2595 123.943 21.1818 123.644 21.1818C123.345 21.1818 123.099 21.2595 122.906 21.4148C122.712 21.5701 122.569 21.7737 122.477 22.0256C122.384 22.2775 122.337 22.5492 122.337 22.8409C122.337 23.1326 122.384 23.4034 122.477 23.6534C122.569 23.9034 122.712 24.1051 122.906 24.2585C123.099 24.4119 123.345 24.4886 123.644 24.4886ZM126.645 25V20.6364H127.293V21.2955H127.338C127.418 21.0795 127.562 20.9044 127.77 20.7699C127.978 20.6354 128.213 20.5682 128.474 20.5682C128.524 20.5682 128.585 20.5691 128.659 20.571C128.733 20.5729 128.789 20.5758 128.827 20.5795V21.2614C128.804 21.2557 128.752 21.2472 128.67 21.2358C128.591 21.2225 128.507 21.2159 128.418 21.2159C128.205 21.2159 128.016 21.2604 127.849 21.3494C127.685 21.4366 127.554 21.5578 127.457 21.7131C127.363 21.8665 127.315 22.0417 127.315 22.2386V25H126.645Z"
                        fill="#09CD7A" />
                </g>
                <g id="Ellipse 1_2" filter="url(#filter1_f_10_2)">
                    <path
                        d="M284 29C284 35.0751 278.851 40 272.5 40C266.149 40 261 35.0751 261 29C261 22.9249 266.149 18 272.5 18C278.851 18 284 22.9249 284 29Z"
                        fill="#09CD7A" />
                </g>
            </g>
        </g>
    </g>
    <defs>
        <filter id="filter0_f_10_2" x="-33" y="-61" width="123" height="122"
            filterUnits="userSpaceOnUse" color-interpolation-filters="sRGB">
            <feFlood flood-opacity="0" result="BackgroundImageFix" />
            <feBlend mode="normal" in="SourceGraphic" in2="BackgroundImageFix" result="shape" />
            <feGaussianBlur stdDeviation="25" result="effect1_foregroundBlur_10_2" />
        </filter>
        <filter id="filter1_f_10_2" x="211" y="-32" width="123" height="122"
            filterUnits="userSpaceOnUse" color-interpolation-filters="sRGB">
            <feFlood flood-opacity="0" result="BackgroundImageFix" />
            <feBlend mode="normal" in="SourceGraphic" in2="BackgroundImageFix" result="shape" />
            <feGaussianBlur stdDeviation="25" result="effect1_foregroundBlur_10_2" />
        </filter>
        <clipPath id="clip0_10_2">
            <rect width="294" height="45" rx="8" fill="white" />
        </clipPath>
    </defs>
    <defs>
        <style>
            #left-leaf,
            #right-leaf {
            animation: leafFloat 1s ease-in-out infinite;
            transform-box:fill-box;
            transform-origin: center center;
            }

            @keyframes leafFloat {
            0% {
            transform: translateY(0px) rotate(0deg);
            }
            50% {
            transform: translateY(-1px) rotate(-1deg);
            }
            100% {
            transform: translateY(0px) rotate(0deg);
            }
            }

        </style>

    </defs>
</svg>